<?xml version="1.0" encoding="UTF-8"?>
<!DOCTYPE svg PUBLIC "-//W3C//DTD SVG 1.1//EN" "http://www.w3.org/Graphics/SVG/1.1/DTD/svg11.dtd">
<!-- Creator: CorelDRAW X6 -->
<svg xmlns="http://www.w3.org/2000/svg" xml:space="preserve" width="300mm" height="200mm" version="1.1" style="shape-rendering:geometricPrecision; text-rendering:geometricPrecision; image-rendering:optimizeQuality; fill-rule:evenodd; clip-rule:evenodd"
viewBox="0 0 30000 20000"
 xmlns:xlink="http://www.w3.org/1999/xlink">
 <defs>
  <style type="text/css">
   <![CDATA[
    .fil1 {fill:#DE2910}
    .fil0 {fill:white}
   ]]>
  </style>
 </defs>
 <g id="Слой_x0020_1">
  <metadata id="CorelCorpID_0Corel-Layer"/>
  <rect class="fil0" width="30000" height="20000"/>
  <polygon class="fil1" points="13000,0 13000,8000 0,8000 0,12000 13000,12000 13000,20000 17000,20000 17000,12000 30000,12000 30000,8000 17000,8000 17000,0 "/>
  <path class="fil1" d="M21613 3263c466,88 943,146 1429,169 -23,-486 -81,-963 -169,-1429 224,28 451,42 682,42 231,0 458,-14 682,-42 -88,466 -146,943 -169,1429 486,-23 963,-81 1429,-169 -28,224 -42,451 -42,682 0,231 14,458 42,682 -466,-88 -943,-146 -1429,-169 23,486 81,963 169,1429 -224,-28 -451,-42 -682,-42 -231,0 -458,14 -682,42 88,-466 146,-943 169,-1429 -486,23 -963,81 -1429,169 28,-224 42,-451 42,-682 0,-231 -14,-458 -42,-682z"/>
  <path class="fil1" d="M21613 15373c466,88 943,146 1429,169 -23,-486 -81,-963 -169,-1429 224,28 451,42 682,42 231,0 458,-14 682,-42 -88,466 -146,943 -169,1429 486,-23 963,-81 1429,-169 -28,224 -42,451 -42,682 0,231 14,458 42,682 -466,-88 -943,-146 -1429,-169 23,486 81,963 169,1429 -224,-28 -451,-42 -682,-42 -231,0 -458,14 -682,42 88,-466 146,-943 169,-1429 -486,23 -963,81 -1429,169 28,-224 42,-451 42,-682 0,-231 -14,-458 -42,-682z"/>
  <path class="fil1" d="M4503 15373c466,88 943,146 1429,169 -23,-486 -81,-963 -169,-1429 224,28 451,42 682,42 231,0 458,-14 682,-42 -88,466 -146,943 -169,1429 486,-23 963,-81 1429,-169 -28,224 -42,451 -42,682 0,231 14,458 42,682 -466,-88 -943,-146 -1429,-169 23,486 81,963 169,1429 -224,-28 -451,-42 -682,-42 -231,0 -458,14 -682,42 88,-466 146,-943 169,-1429 -486,23 -963,81 -1429,169 28,-224 42,-451 42,-682 0,-231 -14,-458 -42,-682z"/>
  <path class="fil1" d="M4503 3263c466,88 943,146 1429,169 -23,-486 -81,-963 -169,-1429 224,28 451,42 682,42 231,0 458,-14 682,-42 -88,466 -146,943 -169,1429 486,-23 963,-81 1429,-169 -28,224 -42,451 -42,682 0,231 14,458 42,682 -466,-88 -943,-146 -1429,-169 23,486 81,963 169,1429 -224,-28 -451,-42 -682,-42 -231,0 -458,14 -682,42 88,-466 146,-943 169,-1429 -486,23 -963,81 -1429,169 28,-224 42,-451 42,-682 0,-231 -14,-458 -42,-682z"/>
 </g>
</svg>
